<svg width="3906" height="2588" viewBox="0 0 3906 2588" fill="none" xmlns="http://www.w3.org/2000/svg">
<path d="M503.307 808.859L470.597 807.803L439.998 681.185C399.199 674.151 368.599 670.634 348.2 670.634C308.104 670.634 263.084 678.723 213.14 694.902C198.368 722.336 186.762 757.508 178.32 800.417C169.879 843.327 165.659 883.774 165.659 921.76C165.659 1115.91 221.582 1212.98 333.428 1212.98C381.261 1212.98 419.246 1205.95 447.384 1191.88L469.542 1063.15C513.858 1063.15 547.623 1065.61 570.836 1070.54C582.091 1147.21 587.719 1209.46 587.719 1257.3C570.836 1269.96 536.72 1284.03 485.369 1299.5C434.722 1314.98 384.778 1322.72 335.538 1322.72C125.915 1322.72 21.103 1193.29 21.103 934.422C21.103 811.321 46.4266 717.764 97.0739 653.751C148.425 589.739 230.023 557.733 341.869 557.733C397.44 557.733 446.68 565.822 489.59 582.001C527.575 596.07 559.933 611.545 586.664 628.428C586.664 676.261 581.388 733.943 570.836 801.473C551.14 806.397 528.63 808.859 503.307 808.859Z" fill="#0CB2D4"/>
<path d="M934.674 844.734C909.35 844.734 880.509 851.065 848.151 863.726C839.007 877.795 830.214 902.767 821.773 938.642C814.035 973.814 810.166 1009.34 810.166 1045.21C810.166 1111.34 820.014 1158.47 839.71 1186.6C859.406 1214.04 891.061 1227.75 934.674 1227.75C978.99 1227.75 1011 1214.04 1030.69 1186.6C1050.39 1158.47 1060.24 1110.63 1060.24 1043.1C1060.24 974.869 1050.04 924.925 1029.64 893.271C1009.94 860.913 978.287 844.734 934.674 844.734ZM934.674 760.322C1016.98 760.322 1083.1 785.645 1133.04 836.293C1183.69 886.236 1209.01 956.228 1209.01 1046.27C1209.01 1135.6 1184.04 1203.84 1134.1 1250.97C1084.15 1298.1 1017.68 1321.66 934.674 1321.66C851.669 1321.66 785.194 1298.1 735.25 1250.97C686.01 1203.84 661.39 1135.6 661.39 1046.27C661.39 956.228 686.362 886.236 736.305 836.293C786.249 785.645 852.372 760.322 934.674 760.322ZM340.814 1525.39C340.11 1525.39 340.11 1526.1 340.814 1527.5C342.221 1528.91 343.627 1532.08 345.034 1537C347.145 1541.22 349.255 1546.5 351.365 1552.83C355.586 1564.08 358.399 1582.72 359.806 1608.75C323.931 1614.38 300.366 1617.9 289.111 1619.3L283.836 2162.71L356.641 2172.2C356.641 2201.04 348.551 2231.64 332.372 2264H75.9708L66.4745 2205.97C105.867 2189.79 135.411 2179.59 155.107 2175.37C154.404 2133.86 153.349 2075.48 151.942 2000.21C149.831 1831.39 147.721 1703.72 145.611 1617.19L58.0333 1589.76L66.4745 1525.39H340.814ZM1149.99 1619.3L1146.82 2264H1011.77L663.566 1696.33C660.752 1902.44 658.994 2057.89 658.29 2162.71L731.096 2172.2C731.096 2201.04 723.006 2231.64 706.827 2264H450.426L440.929 2205.97C480.322 2189.79 509.866 2179.59 529.562 2175.37C529.562 2173.26 526.396 1987.2 520.066 1617.19L432.488 1589.76L440.929 1525.39H715.268L1022.32 2076.18L1006.49 1617.19L918.912 1589.76L927.354 1525.39H1201.69C1200.99 1525.39 1200.99 1526.1 1201.69 1527.5C1203.1 1528.91 1204.51 1532.08 1205.91 1537C1208.02 1541.22 1210.13 1546.5 1212.24 1552.83C1216.46 1564.08 1219.28 1582.72 1220.69 1608.75C1184.81 1614.38 1161.25 1617.9 1149.99 1619.3ZM1899.31 1878.87C1899.31 2033.63 1862.38 2141.25 1788.52 2201.75C1758.27 2225.66 1725.56 2242.19 1690.39 2251.34C1655.22 2259.78 1609.15 2264 1552.17 2264H1278.88L1269.39 2205.97C1322.85 2186.27 1352.39 2176.07 1358.02 2175.37C1358.02 2173.26 1354.85 1987.2 1348.52 1617.19C1317.57 1609.45 1288.38 1600.31 1260.95 1589.76C1265.17 1553.18 1267.98 1531.73 1269.39 1525.39H1549C1617.94 1525.39 1672.81 1532.43 1713.61 1546.5C1755.11 1560.57 1791.69 1585.54 1823.34 1621.41C1873.99 1680.5 1899.31 1766.32 1899.31 1878.87ZM1561.66 2161.65C1641.86 2161.65 1694.96 2142.31 1720.99 2103.62C1747.72 2064.93 1761.09 1998.1 1761.09 1903.14C1761.09 1808.17 1746.32 1739.24 1716.77 1696.33C1687.23 1652.72 1637.99 1630.91 1569.05 1630.91H1492.02C1489.21 1867.97 1487.45 2044.88 1486.75 2161.65H1561.66ZM2195.8 1630.91C2195.8 1711.1 2195.1 1780.04 2193.69 1837.72H2301.32L2311.87 1764.91C2347.74 1764.91 2382.56 1773.71 2416.33 1791.29V2002.32L2346.69 2005.49C2329.81 1980.16 2319.96 1958.01 2317.14 1939.01H2192.64C2191.23 2037.49 2190.53 2111.71 2190.53 2161.65H2370.96L2394.17 2069.85C2437.78 2069.85 2470.84 2071.96 2493.35 2076.18C2503.91 2116.28 2509.18 2152.86 2509.18 2185.92C2509.18 2218.28 2508.13 2244.3 2506.02 2264H1982.66L1973.16 2205.97C2018.89 2188.38 2048.43 2178.18 2061.8 2175.37C2061.09 2133.86 2060.39 2075.48 2059.69 2000.21C2056.87 1831.39 2054.41 1703.72 2052.3 1617.19L1964.72 1589.76L1973.16 1525.39H2491.24C2493.35 1544.39 2494.41 1568.3 2494.41 1597.14C2494.41 1625.28 2489.13 1664.67 2478.58 1715.32C2456.78 1722.36 2423.71 1725.87 2379.4 1725.87L2355.13 1630.91H2195.8ZM3028.03 1619.3C2999.19 1615.79 2977.03 1612.27 2961.55 1608.75C2961.55 1587.65 2967.88 1559.86 2980.54 1525.39H3254.88C3259.1 1550.72 3261.92 1572.17 3263.32 1589.76C3226.04 1603.83 3196.85 1612.97 3175.75 1617.19L2985.82 1884.15L3186.3 2161.65L3280.21 2171.15C3280.21 2200.69 3272.12 2231.64 3255.94 2264H2998.48L2988.99 2205.97C3002.35 2201.04 3022.05 2192.95 3048.07 2181.7L2905.63 1986.5L2788.51 2162.71L2861.31 2172.2C2861.31 2201.75 2852.87 2232.35 2835.99 2264H2580.64L2571.15 2205.97C2601.39 2191.9 2630.94 2181.7 2659.78 2175.37L2832.82 1884.15L2640.79 1617.19L2576.42 1608.75C2579.24 1570.77 2585.57 1542.98 2595.41 1525.39H2880.31C2885.93 1555.64 2888.75 1577.1 2888.75 1589.76C2848.65 1604.53 2819.46 1613.68 2801.17 1617.19C2812.42 1634.08 2830.71 1660.45 2856.04 1696.33C2881.36 1731.5 2902.11 1761.4 2918.29 1786.02L3028.03 1619.3Z" fill="white"/>
<path d="M1584.74 1111.69C1597.4 1068.07 1644.53 918.594 1726.13 663.248L1632.22 634.759L1640.66 570.395H1913.94C1926.61 595.718 1933.29 623.504 1933.99 653.751L1868.57 663.248L1658.6 1309H1518.26L1291.41 663.248L1197.5 634.759L1205.94 570.395H1479.22C1491.88 595.718 1498.57 623.504 1499.27 653.751C1469.02 658.676 1448.27 661.841 1437.02 663.248L1584.74 1111.69Z" fill="#B83133"/>
<path d="M3177.47 46H2993.15M3085.31 46V203.95M2731.63 154.317L2666.5 219.502M2666.5 219.502L2601.32 284.626M2666.5 219.502L2778.16 331.16M2493 546.155V730.47M2493 638.312H2650.95M2601.32 991.999L2666.5 1057.12M2666.5 1057.12L2731.63 1122.31M2666.5 1057.12L2778.16 945.464M3569.31 284.626L3504.12 219.502M3504.12 219.502L3439 154.317M3504.12 219.502L3392.46 331.16M2993.15 598.825C3017.6 598.825 3041.04 589.115 3058.32 571.833C3075.6 554.55 3085.31 531.109 3085.31 506.667C3085.31 482.225 3075.6 458.785 3058.32 441.502C3041.04 424.219 3017.6 414.509 2993.15 414.509C2968.71 414.509 2945.27 424.219 2927.99 441.502C2910.71 458.785 2901 482.225 2901 506.667C2901 531.109 2910.71 554.55 2927.99 571.833C2945.27 589.115 2968.71 598.825 2993.15 598.825Z" stroke="#0CB2D4" stroke-width="91.125" stroke-linecap="round" stroke-linejoin="round"/>
<path d="M3517.17 592.777C3508.65 511.499 3477.38 434.273 3426.94 369.971C3376.5 305.669 3308.95 256.901 3232.04 229.269C3155.13 201.638 3071.98 196.263 2992.16 213.764C2912.33 231.265 2839.06 270.931 2780.76 328.204C2722.47 385.478 2681.51 458.035 2662.6 537.54C2643.69 617.045 2647.59 700.272 2673.86 777.659C2700.13 855.046 2747.69 923.452 2811.09 975.02C2874.49 1026.59 2951.15 1059.22 3032.27 1069.18M3859.8 1048.4C3859.8 1032.29 3853.4 1016.84 3842.01 1005.44C3830.62 994.052 3815.16 987.652 3799.05 987.652H3647.18V835.777C3647.18 819.665 3640.78 804.213 3629.38 792.82C3617.99 781.427 3602.54 775.027 3586.43 775.027H3495.3C3479.19 775.027 3463.74 781.427 3452.34 792.82C3440.95 804.213 3434.55 819.665 3434.55 835.777V987.652H3282.68C3266.56 987.652 3251.11 994.052 3239.72 1005.44C3228.33 1016.84 3221.93 1032.29 3221.93 1048.4V1139.53C3221.93 1155.64 3228.33 1171.09 3239.72 1182.48C3251.11 1193.88 3266.56 1200.28 3282.68 1200.28H3434.55V1352.15C3434.55 1368.26 3440.95 1383.72 3452.34 1395.11C3463.74 1406.5 3479.19 1412.9 3495.3 1412.9H3586.43C3602.54 1412.9 3617.99 1406.5 3629.38 1395.11C3640.78 1383.72 3647.18 1368.26 3647.18 1352.15V1200.28H3799.05C3815.16 1200.28 3830.62 1193.88 3842.01 1182.48C3853.4 1171.09 3859.8 1155.64 3859.8 1139.53V1048.4Z" stroke="#0CB2D4" stroke-width="91.125" stroke-linecap="round" stroke-linejoin="round"/>
<path d="M3067.52 877.277C3061.48 877.277 3055.69 874.877 3051.41 870.605C3047.14 866.333 3044.74 860.538 3044.74 854.496C3044.74 848.454 3047.14 842.66 3051.41 838.387C3055.69 834.115 3061.48 831.715 3067.52 831.715M3067.52 877.277C3073.57 877.277 3079.36 874.877 3083.63 870.605C3087.9 866.333 3090.3 860.538 3090.3 854.496C3090.3 848.454 3087.9 842.66 3083.63 838.387C3079.36 834.115 3073.57 831.715 3067.52 831.715" stroke="#0CB2D4" stroke-width="91.125"/>
</svg>
